<?xml version="1.0" encoding="UTF-8"?>
<svg width="82px" height="79px" viewBox="0 0 82 79" version="1.1" xmlns="http://www.w3.org/2000/svg" xmlns:xlink="http://www.w3.org/1999/xlink">
    <!-- Generator: Sketch 64 (93537) - https://sketch.com -->
    <title>Group 10</title>
    <desc>Created with Sketch.</desc>
    <defs>
        <polygon id="path-1" points="0 0.327741935 81.8683871 0.327741935 81.8683871 78.7095484 0 78.7095484"></polygon>
    </defs>
    <g id="Page-1" stroke="none" stroke-width="1" fill="none" fill-rule="evenodd">
        <g id="Home---Full-Copy-3" transform="translate(-957.000000, -528.000000)">
            <g id="Group-9" transform="translate(957.000000, 527.000000)">
                <g id="Group-10" transform="translate(0.000000, 0.000000)">
                    <path d="M45.3899355,43.7362581 L45.3899355,43.7349677 L45.3550968,43.7207742 L45.3499355,43.7181935 C44.9938065,43.5659355 44.6415484,43.4175484 44.2905806,43.2781935 C40.4996129,41.7323871 38.7667097,40.2330323 38.7667097,38.0343226 C38.7667097,36.2536774 40.2183226,34.7543226 42.888,34.7543226 C45.4634839,34.7543226 47.3834839,36.0665806 49.3950968,37.3298065 C49.9576774,37.7052903 50.6609032,37.3298065 51.0350968,36.7685161 L52.8157419,34.0988387 C53.1434839,33.6304516 53.0015484,32.8356129 52.5344516,32.5556129 C51.5976774,31.8510968 47.9434839,29.4149677 43.1667097,29.4149677 C35.7215484,29.4149677 32.6299355,34.2394839 32.6299355,38.4059355 C32.6299355,43.6691613 36.6260645,46.4665806 40.8067097,48.2588387 L40.8067097,48.260129 C41.0157419,48.347871 41.2247742,48.4394839 41.4350968,48.5233548 C45.368,50.1143226 47.3834839,51.7543226 47.3834839,54.1414194 C47.3834839,56.1556129 45.5576774,57.7465806 43.1202581,57.7465806 C40.0776774,57.7465806 37.9705806,56.2962581 36.0505806,54.8446452 C35.6286452,54.5169032 34.8312258,54.5169032 34.4570323,55.1723871 L32.7731613,58.0756129 C32.3512258,58.8252903 32.5396129,59.1052903 33.0054194,59.4807742 C34.3654194,60.6523871 37.4067097,63.1336774 43.3099355,63.1336774 C49.9125161,63.1336774 54.0789677,58.6846452 54.0789677,53.8627097 C54.0789677,48.3014194 49.6363871,45.5620645 45.3899355,43.7362581" id="Fill-1" fill="#FFDFE2"></path>
                    <g id="Group-5" transform="translate(0.000000, 0.962581)">
                        <mask id="mask-2" fill="white">
                            <use xlink:href="#path-1"></use>
                        </mask>
                        <g id="Clip-4"></g>
                        <path d="M0.264516129,33.0772903 C0.517419355,33.8785806 0.947096774,34.6385806 1.58451613,35.2630968 L1.92387097,34.9185806 L1.49032258,34.7018065 L1.49032258,34.7030968 L1.33419355,35.0153548 L1.58193548,35.2618065 L1.58451613,35.2643871 L1.58709677,35.2682581 L16.1870968,49.4914839 C16.843871,50.1327742 17.203871,51.0050323 17.203871,51.9005161 C17.203871,52.0876129 17.1883871,52.279871 17.1548387,52.4669677 L13.6941935,72.6372903 L13.6941935,72.7185806 L14.1780645,72.7185806 L13.6993548,72.6437419 C13.6580645,72.9095484 13.6322581,73.1792258 13.6309677,73.4540645 L14.1148387,73.4553548 L14.1148387,72.9714839 L14.1135484,72.9714839 L13.6451613,72.9714839 L13.6296774,73.4605161 L13.6296774,73.4656774 L13.6296774,73.476 C13.6283871,75.1314839 14.4232258,76.6811613 15.7806452,77.6811613 L16.0683871,77.2927742 L15.7251613,76.9495484 L15.723871,76.9508387 L15.3419355,77.3340645 L15.7677419,77.6747097 L16.0696774,77.2979355 L15.76,77.6682581 L15.7677419,77.6747097 L15.7883871,77.6914839 L15.8180645,77.712129 L16.0864516,77.3082581 L15.8025806,77.6992258 C16.6903226,78.3469677 17.7483871,78.6992258 18.84,78.7069677 L18.8425806,78.2230968 L18.3587097,78.2230968 L18.3587097,78.2243871 L18.3587097,78.6734194 L18.8232258,78.7082581 L18.84,78.7095484 L18.8774194,78.7095484 C19.7329032,78.7095484 20.5793548,78.4940645 21.3380645,78.0927742 L39.3651613,68.6153548 C39.8425806,68.3650323 40.3948387,68.2295484 40.9329032,68.2295484 L40.9341935,68.2295484 L40.9432258,68.2295484 C41.4825806,68.2295484 42.0296774,68.3650323 42.4954839,68.6114839 L60.5354839,78.0927742 L60.7612903,77.6643871 L60.4929032,78.0669677 L60.4941935,78.0669677 L60.5187097,78.0837419 L60.5535484,78.1030968 L60.7703226,77.6695484 L60.7703226,77.1856774 L60.7703226,78.1534194 L60.7716129,78.1534194 L60.7716129,77.6695484 L60.5470968,78.0979355 C61.3045161,78.4953548 62.1458065,78.7095484 62.9987097,78.7095484 C64.1058065,78.7095484 65.1793548,78.352129 66.0812903,77.6940645 L66.0929032,77.6863226 L66.1122581,77.6734194 L66.1393548,77.6514839 L66.1922581,77.6011613 L66.4954839,77.3030968 L66.2387097,76.9611613 L65.8516129,77.2514839 L66.1432258,77.6385806 C67.4619355,76.6476129 68.236129,75.1250323 68.2412903,73.4979355 L67.7574194,73.4966452 L67.7574194,73.9805161 L67.76,73.9805161 L68.2206452,73.9805161 L68.243871,73.5082581 L68.243871,73.4953548 L68.243871,73.4695484 L68.243871,73.4605161 C68.243871,73.1805161 68.2154839,72.9082581 68.1754839,72.6450323 L67.6967742,72.7185806 L68.1806452,72.7185806 L68.1806452,72.7172903 L68.1806452,72.6772903 L68.1806452,72.636 L64.7290323,52.5069677 L64.2516129,52.5882581 L64.7354839,52.5882581 L64.7354839,52.5869677 L64.7354839,52.5443871 L64.7212903,52.4630968 C64.6890323,52.276 64.6735484,52.0863226 64.6735484,51.8966452 C64.6735484,51.0024516 65.0322581,50.1314839 65.6877419,49.4927742 L80.2348387,35.3172903 L79.8967742,34.9714839 L79.8967742,35.4553548 L79.8980645,35.4553548 L80.0993548,35.4553548 L80.2916129,35.2618065 L79.9496774,34.919871 L80.2890323,35.2643871 C81.2851613,34.2901935 81.8283871,32.9856774 81.8580645,31.6411613 L81.3741935,31.6308387 L81.8322581,31.7869677 L81.8425806,31.7547097 L81.8683871,31.6785806 L81.8683871,31.5237419 L81.8683871,31.5211613 L81.8683871,31.5172903 L81.8683871,31.0334194 L81.3845161,31.0334194 L81.3845161,31.5172903 L81.8683871,31.5172903 C81.8670968,30.9805161 81.7819355,30.4437419 81.6154839,29.9211613 L81.1548387,30.0682581 L81.1548387,30.552129 L81.156129,30.552129 L81.64,30.552129 L81.64,30.0656774 L81.64,30.0063226 L81.6206452,29.9314839 L81.6154839,29.9108387 L81.603871,29.876 L81.5935484,29.8463226 L81.5793548,29.8179355 L81.1470968,30.0347097 L81.6064516,29.8811613 L81.6051613,29.8772903 L81.4941935,29.5469677 L81.1445161,29.5469677 L81.1445161,30.0308387 L81.6064516,29.8837419 C80.9974194,27.9701935 79.3509677,26.5805161 77.3612903,26.3005161 L57.1948387,23.3689032 C56.0954839,23.2101935 55.163871,22.5327742 54.676129,21.5379355 L54.6735484,21.5340645 L54.6735484,21.5327742 L45.6477419,3.25664516 C44.7703226,1.45406452 42.9651613,0.326322581 40.96,0.327608479 L40.956129,0.327608479 L40.9174194,0.328903226 L40.9535484,0.811483871 L40.9535484,0.327608479 L40.9406452,0.327608479 L40.923871,0.327608479 L40.923871,0.811483871 L40.9406452,0.327608479 L40.9174194,0.327608479 C38.9096774,0.325032258 37.1006452,1.45148387 36.2193548,3.25664516 L36.1716129,3.35470968 L27.2025806,21.5340645 C26.7109677,22.5301935 25.7716129,23.2114839 24.68,23.3689032 L4.50322581,26.3005161 C2.54064516,26.5805161 0.918709677,27.9430968 0.286451613,29.8153548 L0.745806452,29.9701935 L0.312258065,29.7534194 L0.265806452,29.8463226 L0.214193548,29.9482581 L0.214193548,30.1224516 L0.698064516,30.1224516 L0.236129032,29.9818065 C0.0838709677,30.479871 0,30.996 0,31.5147097 C0,32.0308387 0.0993548387,32.5185806 0.23483871,32.9805161 L1.16258065,32.7082581 C1.04387097,32.3018065 0.967741935,31.9056774 0.967741935,31.5147097 C0.967741935,31.1018065 1.03483871,30.679871 1.16129032,30.2630968 L1.18193548,30.1947097 L1.18193548,30.0630968 L0.698064516,30.0630968 L1.1316129,30.279871 L1.17806452,30.1869677 L1.19354839,30.156 L1.20387097,30.1250323 C1.72129032,28.592129 3.04,27.4876129 4.64129032,27.2579355 L24.8180645,24.3263226 C26.2232258,24.1250323 27.4387097,23.2437419 28.0709677,21.9624516 L37.04,3.78051613 L37.0890323,3.68116129 C37.8141935,2.20503226 39.2722581,1.29664516 40.9174194,1.29535484 L40.9174194,1.00632258 L40.9083871,1.29535484 L40.9174194,1.29535484 L40.9174194,1.00632258 L40.9083871,1.29535484 L40.9135484,1.29535484 L40.9406452,1.29535484 L40.9535484,1.29535484 L40.9716129,1.29535484 L40.9896774,1.29406452 L40.956129,0.855354839 L40.956129,1.29535484 L40.9896774,1.29406452 L40.956129,0.855354839 L40.956129,1.29535484 L40.96,1.29535484 C42.6012903,1.29664516 44.0567742,2.20632258 44.7793548,3.68245161 L53.8064516,21.9637419 L53.8090323,21.9676129 L53.8064516,21.9637419 C54.4322581,23.2437419 55.6451613,24.1250323 57.0567742,24.3263226 L77.2258065,27.2579355 C78.8516129,27.4876129 80.1858065,28.6153548 80.683871,30.1766452 L80.7909677,30.5147097 L81.1458065,30.5147097 L81.1458065,30.0308387 L80.6864516,30.1830968 L80.6877419,30.1869677 L80.6980645,30.2192258 L80.7148387,30.2527742 L81.1470968,30.036 L80.6903226,30.196 L80.6941935,30.2076129 L81.1522581,30.0476129 L80.6825806,30.1650323 L80.6864516,30.1830968 L81.156129,30.0656774 L80.6722581,30.0656774 L80.6722581,30.0682581 L81.156129,30.0682581 L81.156129,29.5843871 L81.1548387,29.5843871 L80.4929032,29.5843871 L80.6941935,30.2153548 C80.8309677,30.6450323 80.8993548,31.0837419 80.9006452,31.5172903 L80.9006452,32.0011613 L81.3845161,32.0011613 L81.3845161,31.5172903 L80.9006452,31.5172903 L80.9006452,31.5211613 L80.9006452,31.5237419 L80.9006452,31.5985806 L81.3845161,31.5985806 L80.9264516,31.4424516 L80.916129,31.4747097 L80.8916129,31.5456774 L80.8903226,31.6192258 C80.8658065,32.7185806 80.4245161,33.7792258 79.6116129,34.5740645 L79.6077419,34.5766452 L79.556129,34.6282581 L79.8980645,34.9714839 L79.8980645,34.4876129 L79.8967742,34.4876129 L79.7006452,34.4876129 L65.0116129,48.799871 C64.1677419,49.6218065 63.7058065,50.7418065 63.7058065,51.8966452 C63.7058065,52.1405161 63.7264516,52.3869677 63.7677419,52.6308387 L63.7754839,52.672129 L64.2516129,52.5869677 L63.7677419,52.5869677 L63.7677419,52.5882581 L63.7677419,52.6282581 L67.2206452,72.759871 L67.6967742,72.6772903 L67.2129032,72.6772903 L67.2129032,72.7172903 L67.2129032,72.7185806 L67.2129032,72.7547097 L67.2193548,72.7908387 C67.2541935,73.0218065 67.276129,73.2463226 67.276129,73.4605161 L67.276129,73.4695484 L67.276129,73.472129 L67.276129,73.4734194 L67.76,73.4966452 L67.76,73.0127742 L67.7574194,73.0127742 L67.276129,73.0127742 L67.2735484,73.4953548 C67.2683871,74.8153548 66.6451613,76.0476129 65.56,76.8669677 L65.1754839,77.1547097 L65.4670968,77.5443871 L65.8541935,77.2540645 L65.5148387,76.9082581 L65.5109677,76.9134194 L65.5083871,76.9147097 L65.5109677,76.9134194 C64.7690323,77.4527742 63.8967742,77.7418065 62.9987097,77.7418065 C62.3070968,77.7418065 61.6193548,77.5676129 60.996129,77.2411613 L60.8916129,77.1856774 L60.7716129,77.1856774 L60.7703226,77.1856774 L60.7703226,78.1534194 L62.8219355,78.1534194 L60.9793548,77.2334194 L60.7625806,77.6656774 L61.0309677,77.2618065 L61.0296774,77.2605161 L61.0090323,77.2463226 L42.9470968,67.756 C42.3367742,67.4347097 41.6425806,67.2618065 40.9432258,67.2618065 L40.9341935,67.2618065 L40.9329032,67.2618065 C40.2348387,67.2618065 39.5367742,67.4347097 38.916129,67.7585806 L20.8864516,77.2372903 C20.2632258,77.5663226 19.5703226,77.7418065 18.8774194,77.7418065 L18.8787097,77.7418065 L18.8425806,78.2243871 L19.3264516,78.2243871 L19.3264516,78.2230968 L19.3264516,77.7418065 L18.8451613,77.7392258 C17.96,77.7327742 17.1006452,77.4476129 16.3716129,76.9172903 L16.3651613,76.9134194 L16.3458065,76.8992258 L16.0774194,77.3018065 L16.3870968,76.9301935 L16.3793548,76.9237419 L16.3754839,76.9211613 L16.3690323,76.916 L16.0670968,77.2940645 L16.4090323,77.636 L16.4103226,77.6334194 L16.8077419,77.2372903 L16.3548387,76.9030968 C15.236129,76.076 14.5974194,74.8218065 14.5974194,73.476 L14.1135484,73.476 L14.5974194,73.4901935 L14.5974194,73.4708387 L14.1135484,73.4553548 L14.1135484,73.9392258 L14.1148387,73.9392258 L14.5974194,73.9392258 L14.5987097,73.4566452 C14.6,73.2424516 14.6193548,73.0205161 14.6554839,72.792129 L14.6619355,72.756 L14.6619355,72.719871 L18.1096774,52.6308387 C18.1509677,52.3882581 18.1716129,52.1430968 18.1716129,51.9005161 C18.1716129,50.7443871 17.7070968,49.6230968 16.8632258,48.7985806 L2.26451613,34.5766452 L1.92645161,34.9237419 L2.2683871,34.5805161 L2.26580645,34.5779355 L2.26451613,34.5766452 L1.92258065,34.919871 L2.35612903,35.1366452 L2.35612903,35.1353548 L2.51354839,34.8192258 L2.26193548,34.5727742 C1.75096774,34.0708387 1.39870968,33.4553548 1.18709677,32.7843871 L0.264516129,33.0772903 Z" id="Fill-3" fill="#EE365D" mask="url(#mask-2)"></path>
                    </g>
                    <polygon id="Fill-6" fill="#EA395F" points="45.2135484 4.43187097 45.2135484 4.43316129 45.2135484 4.43445161"></polygon>
                    <path d="M30.7787097,57.4396129 L30.7787097,57.4383226 L30.7774194,57.4383226 L30.7670968,57.4305806 L30.7425806,57.4099355 L30.4329032,57.1376774 L30.5967742,56.8047742 L30.6496774,56.6976774 L32.3412903,53.7828387 L32.383871,53.7402581 L32.5529032,53.5673548 L32.6870968,53.5350968 L32.8548387,53.4938065 L32.9709677,53.5221935 L33.0122581,53.5338065 L33.0432258,53.544129 L33.0806452,53.5596129 L33.1103226,53.5776774 L33.1412903,53.5957419 L33.1658065,53.6138065 C34.1322581,54.3454194 35.1683871,55.0925161 36.3709677,55.664129 C37.5683871,56.2331613 38.94,56.6202581 40.5374194,56.6202581 L40.5425806,56.6202581 L40.543871,56.6202581 L40.5451613,56.6202581 L40.5477419,56.6202581 L40.5516129,56.6202581 C41.8832258,56.6202581 43.0690323,56.1854194 43.9348387,55.4486452 L43.9348387,55.4473548 C44.7774194,54.7325161 45.303871,53.7067097 45.3258065,52.5712258 L45.3283871,52.431871 C45.3206452,51.7854194 45.1812903,51.1699355 44.9064516,50.6034839 C44.4780645,49.7260645 43.7516129,48.9738065 42.7748387,48.2950968 C41.7941935,47.6138065 40.5580645,46.9983226 39.06,46.391871 C38.9064516,46.3299355 38.7464516,46.2615484 38.5864516,46.1931613 L38.6135484,46.2047742 L38.5890323,46.1931613 L38.4432258,46.1312258 C36.3864516,45.2512258 34.4032258,44.1312258 32.9567742,42.6254194 L32.9554839,42.624129 C31.5141935,41.1196129 30.5864516,39.2525161 30.583871,36.7583226 L30.583871,36.7557419 C30.583871,34.7970323 31.3103226,32.6847742 32.9090323,31.0667097 L32.8754839,31.1002581 L32.9090323,31.0667097 L32.9103226,31.0667097 C34.5077419,29.4512258 36.9877419,28.2925161 40.5980645,28.2886452 L40.5993548,28.2886452 L40.6109677,28.2886452 L40.6354839,28.2886452 C45.2148387,28.2963871 48.7670968,30.6563871 49.6535484,31.3247742 L49.6625806,31.3325161 L49.7129032,31.3725161 L49.7451613,31.4125161 L49.8354839,31.5221935 L49.86,31.6357419 L49.9077419,31.8563871 L49.8935484,31.944129 L49.8793548,32.0370323 L49.8458065,32.104129 L49.8316129,32.1325161 L48.0070968,34.8705806 L47.9735484,34.9028387 L47.6987097,35.1815484 L47.6264516,35.2163871 L47.3916129,35.3338065 L47.2058065,35.2770323 L47.1206452,35.2512258 L47.0664516,35.2163871 C46.0767742,34.5970323 45.0883871,33.9492903 44.0019355,33.4473548 L44.0006452,33.4460645 C42.9064516,32.9415484 41.703871,32.5867097 40.3348387,32.5854194 L40.3245161,32.5854194 L40.3219355,32.5854194 L40.3116129,32.5854194 L40.3090323,32.5854194 L40.3025806,32.5854194 C38.8793548,32.5867097 37.7232258,32.991871 36.9167742,33.6821935 L36.9154839,33.6834839 C36.1129032,34.3673548 35.6793548,35.3402581 35.6767742,36.3634839 L35.6767742,36.3867097 L35.6767742,36.4034839 C35.6780645,37.0163871 35.8019355,37.5983226 36.0535484,38.1376774 C36.4367742,38.9557419 37.0987097,39.6589677 38.0070968,40.2976774 L38.0058065,40.2976774 C38.9167742,40.9376774 40.0819355,41.5247742 41.5258065,42.111871 L41.5335484,42.1157419 L41.5425806,42.1196129 L41.5567742,42.1260645 C41.8806452,42.2563871 42.2135484,42.3957419 42.5490323,42.5402581 L42.5593548,42.544129 L42.5877419,42.5544516 L42.6006452,42.5609032 L42.656129,42.5854194 L42.66,42.588 C44.7451613,43.4873548 46.8393548,44.6009032 48.3929032,46.1221935 L48.3954839,46.1234839 C49.9541935,47.6602581 50.983871,49.5802581 50.9890323,52.2150968 C50.9877419,54.4744516 50.0135484,56.6512258 48.2496774,58.2731613 L48.2870968,58.2383226 L48.2483871,58.2731613 L48.2496774,58.2731613 L48.2483871,58.2744516 C46.4819355,59.8950968 43.9232258,60.9634839 40.74,60.9647742 L40.7374194,60.9647742 C34.9890323,60.9557419 32.1103226,58.5789677 30.7787097,57.4396129 L30.7787097,57.4396129 Z M40.7374194,62.0073548 L40.7503226,62.0073548 C44.1632258,62.0060645 46.9877419,60.8512258 48.9529032,59.0421935 C50.8987097,57.2563871 52.0019355,54.8331613 52.0264516,52.3028387 L52.0264516,52.2189677 L52.0316129,52.2073548 L52.0316129,52.1957419 L52.0316129,52.1815484 C52.0277419,49.2770323 50.8341935,47.0460645 49.1232258,45.3776774 L49.1219355,45.3776774 C47.9,44.1815484 46.4174194,43.2667097 44.8870968,42.4950968 L44.023871,42.0589677 L44.0548387,42.0434839 L42.9670968,41.584129 L42.9593548,41.5802581 L42.6870968,41.4602581 L42.6612903,41.4486452 L42.656129,41.4550968 L42.3567742,41.3299355 C42.2070968,41.2667097 42.063871,41.2047742 41.9232258,41.1492903 L41.9193548,41.148 C40.0496774,40.3867097 38.7206452,39.6447742 37.8922581,38.8705806 L37.8909677,38.8692903 L37.8922581,38.8705806 C37.4780645,38.4860645 37.1864516,38.0976774 36.9993548,37.6950968 L36.9980645,37.6925161 C36.8109677,37.2950968 36.7193548,36.8654194 36.7180645,36.3905806 L36.7180645,36.3854194 L36.7180645,36.3815484 C36.7180645,35.6460645 37.0187097,34.9699355 37.5929032,34.4770323 L37.5967742,34.4744516 C38.18,33.9725161 39.0806452,33.628 40.3180645,33.628 L40.3193548,33.628 C41.5141935,33.628 42.5580645,33.9299355 43.5645161,34.3944516 C44.5722581,34.8576774 45.5374194,35.4873548 46.5503226,36.1234839 L46.6587097,36.1931613 L46.8664516,36.2667097 C47.0251613,36.3234839 47.1748387,36.3531613 47.3077419,36.3531613 L47.3283871,36.3531613 C47.6664516,36.351871 47.9735484,36.2357419 48.2354839,36.0692903 C48.503871,35.8950968 48.7270968,35.6692903 48.9,35.4099355 L50.6948387,32.7170323 L50.7993548,32.4654194 C50.8948387,32.2357419 50.9451613,32.0176774 50.9451613,31.8396129 L50.9451613,31.8383226 C50.943871,31.5763871 50.8883871,31.3183226 50.7787097,31.0809032 L50.7748387,31.0731613 L50.5645161,30.751871 L50.4496774,30.6176774 L50.2793548,30.4899355 C49.2858065,29.7492903 45.5593548,27.2525161 40.5980645,27.2473548 L40.5722581,27.2473548 L40.5709677,27.2473548 C36.7516129,27.2499355 33.9683871,28.504129 32.1670968,30.3338065 L32.1658065,30.3350968 C30.3593548,32.1673548 29.5425806,34.544129 29.54,36.7531613 L29.54,36.7776774 L29.54,36.7892903 C29.5425806,39.5402581 30.6135484,41.7028387 32.2045161,43.348 L32.2058065,43.348 C33.4754839,44.6667097 35.0729032,45.6563871 36.7451613,46.4731613 L37.3451613,46.7673548 L37.3245161,46.788 L38.0329032,47.0899355 L38.0341935,47.0899355 C38.2406452,47.1802581 38.4535484,47.2705806 38.6703226,47.3596129 L38.6677419,47.3596129 C40.6096774,48.1428387 42.0445161,48.9312258 42.9632258,49.7725161 L42.9632258,49.7712258 L42.9645161,49.7725161 L42.9632258,49.7725161 C43.4225806,50.1905806 43.7529032,50.6176774 43.9683871,51.0602581 L43.9696774,51.064129 C44.1825806,51.5015484 44.2922581,51.9738065 44.2922581,52.4925161 L44.2922581,52.4963871 L44.2922581,52.4976774 C44.2922581,53.3350968 43.9129032,54.0950968 43.2587097,54.6538065 L43.2754839,54.6409032 L43.2587097,54.6538065 L43.2574194,54.6550968 C42.5993548,55.2176774 41.656129,55.5789677 40.5516129,55.5789677 L40.5503226,55.5789677 C39.1129032,55.5776774 37.9090323,55.2383226 36.8187097,54.7221935 C35.7258065,54.2047742 34.7490323,53.5028387 33.7954839,52.7815484 L33.7954839,52.7828387 L33.7941935,52.7815484 L33.7954839,52.7815484 L33.6806452,52.6950968 L33.423871,52.5931613 C33.2122581,52.5092903 33.0109677,52.4615484 32.8212903,52.4615484 C32.5658065,52.4615484 32.3025806,52.5196129 32.0574194,52.6512258 C31.8135484,52.7828387 31.5954839,52.9905806 31.4393548,53.2628387 L31.1245161,53.8099355 L31.1206452,53.8086452 L29.7619355,56.1492903 L29.7464516,56.1789677 L29.7425806,56.184129 C29.5645161,56.5067097 29.4496774,56.7996129 29.4470968,57.1196129 L29.1954839,57.1183226 L29.4470968,57.1260645 L29.4458065,57.1312258 C29.4483871,57.2847742 29.4883871,57.424129 29.5606452,57.5815484 L29.6974194,57.8796129 L30.0716129,58.2060645 L30.0974194,58.228 C31.4690323,59.4215484 34.6716129,62.0009032 40.6780645,62.0073548 L40.703871,62.0073548 L40.736129,62.0073548 L40.7374194,62.0073548 Z" id="Fill-8" fill="#EA395F"></path>
                </g>
            </g>
        </g>
    </g>
</svg>